<?xml version="1.0" encoding="UTF-8"?>
<svg id="uuid-0eb4b245-cf7c-4031-9bec-631fe7b6379c" data-name="katman 1" xmlns="http://www.w3.org/2000/svg" viewBox="0 0 1876.29 1857.05">
  <path d="M1025.07,662.86c-30.34-13.96-64.95,8.06-64.95,41.45v155.36c0,25.23,20.46,45.68,45.69,45.68l150.66-.02c32.51,0,54.87-33.11,42.26-63.08-16.81-39.95-41.49-77.36-74.03-109.9-29.72-29.72-63.54-52.89-99.63-69.5Z" fill="#ececec"/>
  <path d="M995.22,486.37c88.42,20.56,172.35,65.31,241.26,134.21,70.92,70.92,116.24,157.75,135.94,248.98,4.52,20.92,23.16,35.76,44.57,35.76h63.78c28.88,0,50.28-26.41,44.78-54.76-24.07-124.13-84.17-242.65-180.28-338.77-93.83-93.83-209-153.32-329.87-178.52-28.48-5.94-55.27,15.6-55.27,44.69v64c0,21.15,14.5,39.63,35.1,44.42Z" fill="#ececec"/>
  <path d="M1875.94,854.43c-25.89-209.37-119.21-411.95-279.96-572.7C1431.96,117.71,1224.39,23.9,1010.49.28c-26.92-2.97-50.37,18.37-50.37,45.45v77.77c0,22.71,16.69,41.9,39.17,45.18,167.84,24.49,329.5,101.32,458.64,230.46,131.17,131.17,208.37,295.9,231.56,466.6,3.08,22.67,22.36,39.6,45.24,39.6h95.83c27.3,0,48.73-23.81,45.38-50.9Z" fill="#ececec"/>
  <path d="M1724.04,1016.95l-119.75-.08-124.01-.11c-24.43-.02-45.5,17.48-49.5,41.58-18.07,108.77-69.02,213.09-152.88,296.94-84.94,84.94-190.88,136.15-301.16,153.58-41.8,6.64-84.3,8.42-126.5,5.31-126.75-9.3-250.94-62.42-347.93-159.41-94.67-94.67-147.54-215.23-158.68-338.81-3.8-42.11-2.75-84.55,3.17-126.47,16.01-113.57,67.67-223.05,154.96-310.34,85.98-85.98,193.51-137.39,305.26-154.21,24.38-3.67,42.43-24.53,42.41-49.19l-.09-123.53-.08-120.2c-.02-29.62-25.73-52.71-55.18-49.59-195.05,20.71-384.47,105.75-533.87,255.16C106.24,491.53,20.6,687.97,3.29,889.23c-3.62,42.04-4.26,84.36-1.9,126.47,11.71,211.09,98.3,418.94,259.66,580.3,163.69,163.69,375.13,250.37,589.42,260.09,42.14,1.96,84.46.9,126.5-3.2,198.09-19.09,390.88-104.4,542.51-256.04,146.95-146.95,231.64-332.64,254.09-524.27,3.47-29.6-19.73-55.63-49.53-55.65Z" fill="#ececec"/>
</svg>